<svg width="512" height="512" viewBox="0 0 512 512" fill="none" xmlns="http://www.w3.org/2000/svg">
  <rect width="512" height="512" rx="100" fill="#B85C2A"/>
  <ellipse cx="256" cy="300" rx="110" ry="100" fill="#F7F0E6"/>
  <ellipse cx="256" cy="195" rx="75" ry="70" fill="#F7F0E6"/>
  <ellipse cx="220" cy="183" rx="13" ry="13" fill="#1A1208"/>
  <ellipse cx="222" cy="180" rx="5" ry="5" fill="white"/>
  <path d="M236 205 Q256 220 276 205" stroke="#B85C2A" stroke-width="4" fill="none" stroke-linecap="round"/>
  <path d="M256 125 Q268 102 288 108 Q278 135 256 125Z" fill="#E8A020"/>
  <path d="M232 125 Q214 108 198 118 Q210 140 232 125Z" fill="#E8301A"/>
  <ellipse cx="192" cy="302" rx="26" ry="16" fill="#E8A020" transform="rotate(-20 192 302)"/>
  <ellipse cx="320" cy="302" rx="26" ry="16" fill="#E8A020" transform="rotate(20 320 302)"/>
  <ellipse cx="228" cy="398" rx="22" ry="11" fill="#E8A020"/>
  <ellipse cx="284" cy="398" rx="22" ry="11" fill="#E8A020"/>
  <ellipse cx="174" cy="258" rx="38" ry="26" fill="#D4C4AA" transform="rotate(-15 174 258)"/>
  <ellipse cx="338" cy="258" rx="38" ry="26" fill="#D4C4AA" transform="rotate(15 338 258)"/>
</svg>
