<svg width="192" height="192" viewBox="0 0 192 192" fill="none" xmlns="http://www.w3.org/2000/svg">
  <rect width="192" height="192" rx="40" fill="#B85C2A"/>
  <ellipse cx="96" cy="110" rx="42" ry="38" fill="#F7F0E6"/>
  <ellipse cx="96" cy="72" rx="28" ry="26" fill="#F7F0E6"/>
  <ellipse cx="82" cy="68" rx="5" ry="5" fill="#1A1208"/>
  <ellipse cx="83" cy="67" rx="2" ry="2" fill="white"/>
  <path d="M88 76 Q96 82 104 76" stroke="#B85C2A" stroke-width="2" fill="none" stroke-linecap="round"/>
  <path d="M96 46 Q100 38 108 40 Q104 50 96 46Z" fill="#E8A020"/>
  <path d="M86 46 Q80 40 74 44 Q78 52 86 46Z" fill="#E8301A"/>
  <ellipse cx="72" cy="112" rx="10" ry="6" fill="#E8A020" transform="rotate(-20 72 112)"/>
  <ellipse cx="120" cy="112" rx="10" ry="6" fill="#E8A020" transform="rotate(20 120 112)"/>
  <ellipse cx="86" cy="148" rx="8" ry="4" fill="#E8A020"/>
  <ellipse cx="106" cy="148" rx="8" ry="4" fill="#E8A020"/>
  <ellipse cx="66" cy="95" rx="14" ry="10" fill="#D4C4AA" transform="rotate(-15 66 95)"/>
  <ellipse cx="126" cy="95" rx="14" ry="10" fill="#D4C4AA" transform="rotate(15 126 95)"/>
</svg>
